<?xml version="1.0" standalone="no"?>
<!DOCTYPE svg PUBLIC "-//W3C//DTD SVG 1.1//EN" "http://www.w3.org/Graphics/SVG/1.1/DTD/svg11.dtd">
<svg xmlns="http://www.w3.org/2000/svg">
<metadata>Copyright (C) 2019 by original authors @ fontello.com</metadata>
<defs>
<font id="cssipfont" horiz-adv-x="1000" >
<font-face font-family="cssipfont" font-weight="400" font-stretch="normal" units-per-em="1000" ascent="850" descent="-150" />
<missing-glyph horiz-adv-x="1000" />
<glyph glyph-name="info" unicode="&#xe800;" d="M154 841c-71-19-126-75-145-147-13-49-13-639 0-688 19-72 74-129 144-148 46-12 648-12 694 1 67 17 127 77 144 144 13 46 13 648 1 694-19 71-76 126-148 144-48 13-644 13-690 0z m676-124c11-6 26-18 32-27 12-16 12-22 12-340s0-324-12-340c-27-38-20-37-362-37s-334-1-362 37c-12 16-12 22-12 340s0 324 12 340c28 38 20 37 362 37 284 0 312-1 330-10z m-366-42c-22-14-35-33-41-58-5-25 1-44 22-68 33-38 84-38 121 1 17 18 19 24 19 50 0 53-32 86-80 86-13 0-31-5-41-11z m61-48c9-9 9-36 0-45-14-14-51 0-51 19 0 24 35 42 51 26z m-25-128c-22-6-56-14-75-18-28-5-35-9-40-22-4-10-4-24-1-36 4-17 8-21 27-26 19-5 22-7 25-29 2-13 3-69 1-125-1-108-2-112-32-112-26 0-40-43-21-69 8-13 11-13 127-13 135 0 135 0 133 42-1 29-5 34-35 43l-21 6-2 177c-1 120-3 181-8 186-8 10-28 9-78-4z m43-388c7-9 5-9-30-9h-38l9 24c13 37 8 271-5 292l-10 14 30 9 30 9 3-165c3-127 5-167 11-174z" horiz-adv-x="1000" />

<glyph glyph-name="login" unicode="&#xe801;" d="M402 817c-59-25-80-37-100-57-45-46-70-125-51-166 16-32 52-44 87-30 21 9 31 26 38 60 7 37 25 55 63 62 17 3 134 5 291 5 250 0 263 0 279-10 34-21 33-13 33-324 0-215-1-285-7-295-3-7-14-19-24-25l-18-12h-282c-300 0-298 0-320 25-6 5-12 22-15 37-7 34-17 51-38 59-54 23-100-16-92-78 7-67 51-127 114-157l34-16h315 315l35 16c54 26 91 68 107 124 8 25 9 70 9 320 0 304-1 318-24 363-13 25-54 67-80 80-47 25-57 26-365 25-195 0-295-2-304-6z m90-249c-13-8-21-20-25-34-7-20-7-25 3-45 9-18 20-28 50-46l38-24-256-3c-279-2-272-2-291-33-14-22-14-44 0-66 19-31 12-30 291-33l256-3-29-18c-40-25-57-42-64-62-7-22 1-48 19-65 16-15 54-20 72-11 30 16 360 224 358 226-2 1-84 53-184 115-199 125-202 126-238 102z" horiz-adv-x="1418" />

<glyph glyph-name="cane_large_left" unicode="&#xe802;" d="M479-106c-50 59-56 68-52 75 2 3 14 15 28 27 23 19 34 24 43 18 12-8 89-104 89-110 0-11-48-54-60-54-8 0-18 10-48 44z m-82 120c-4 2-17 34-29 70-18 50-22 68-19 73 2 4 17 11 37 18 32 11 35 11 42 5 9-8 50-123 49-137-1-8-6-11-36-21-40-15-36-14-44-8z m-63 174c-2 3-12 35-22 72-17 66-17 68-10 75 10 9 67 24 76 19 10-5 45-137 39-147-3-5-14-10-36-16-37-9-42-9-47-3z m-57 195c-6 25-13 42-24 59-54 83-143 143-214 143-13 0-24 2-24 4 0 6 29 16 50 18 43 3 91-14 135-49 29-23 45-38 57-54 11-16 10-9-4 18-20 40-44 73-74 102-33 31-65 49-96 56l-20 4 11 6c19 10 57 5 89-11 28-14 66-46 88-75 10-13 10-13 11-4 0 39 10 88 23 121 11 28 38 69 55 83 15 12 42 23 57 23 9 0 8-1-8-13-49-38-86-129-86-214l0-28 11 30c19 55 34 81 67 114 35 35 56 47 87 47 11 0 21-2 23-4 1-2 0-4-2-4-14 0-43-19-67-44-22-22-31-35-48-70-12-24-23-51-25-60-3-9-6-20-7-24-1-4 5 0 13 9 30 33 77 54 105 46 10-3 11-4 4-6-44-17-76-46-95-87-17-37-19-50-11-77 3-12 7-24 8-28 2-3 2-6 2-7 0-2 2-11 5-20l5-17-42-10c-23-6-44-11-46-12-3 0-8 14-13 35z" horiz-adv-x="591" />

<glyph glyph-name="cane_small_left" unicode="&#xe803;" d="M400-60c0 11 40 66 61 85 32 28 107 63 148 68 21 3 39 8 41 11 8 13-110 33-209 37-150 5-242-15-326-72-42-28-43-28-27 3 28 54 103 103 197 129 67 19 235 19 310 0 83-20 76-8-22 40-170 83-346 106-480 61-43-15-52-16-45-6 21 26 43 42 90 64 45 22 59 24 139 27 75 2 99 0 163-17 41-10 105-33 142-50 37-18 68-31 69-29 1 1-8 23-21 50-58 122-75 280-39 360 10 22 26 47 36 56l17 17-11-41c-32-119 20-311 129-471 60-90 85-103 53-29-46 110-65 276-43 373 16 65 34 101 70 138 34 36 47 38 28 4-83-141-37-452 93-639l36-50-52-34c-82-55-81-54-114-38-122 62-307 48-404-30-16-13-29-20-29-17z" horiz-adv-x="1038" />

<glyph glyph-name="cane_small_right" unicode="&#xe804;" d="M608-42c-90 76-282 90-402 29-33-16-33-17-115 38l-51 34 35 50c87 124 143 321 136 473-3 54-23 133-42 166-19 34-7 32 28-4 36-37 54-73 69-138 23-97 4-263-43-373-32-74-7-61 54 29 109 160 161 352 128 471l-11 41 18-17c10-9 26-34 36-56 36-80 18-238-40-360-12-27-22-49-20-50 1-2 32 11 69 29 37 17 100 40 141 50 64 17 88 19 164 17 79-3 93-5 138-27 48-22 70-38 90-64 8-10-2-9-44 6-134 45-310 22-480-61-99-48-105-60-23-40 75 19 243 19 311 0 93-26 168-75 197-129 16-31 14-31-28-3-84 57-176 77-325 72-99-4-217-24-210-37 2-3 21-8 42-11 41-5 116-40 148-69 22-19 65-80 60-85-2-2-15 7-30 19z" horiz-adv-x="1038" />

<glyph glyph-name="cane_small_upright" unicode="&#xe805;" d="M475-36c0 63-2 122-6 132-3 9-21 39-39 65-54 81-140 140-232 159l-47 11 33 6c81 16 172-8 244-65 17-14 33-24 36-22 2 2-9 27-25 54-100 178-234 298-371 334-43 11-45 12-22 18 13 4 48 5 78 3 129-8 288-139 382-313 35-64 37-44 7 61-56 194-164 345-293 411l-43 23 36 0c146 2 303-169 373-405l19-64 24 53c73 161 205 278 311 278l38 0-47-26c-124-68-223-220-272-417-10-43-17-81-15-85 2-4 22 23 42 60 111 197 287 318 423 292l33-6-52-16c-153-48-312-220-388-421-17-45-21-71-21-145v-89h-104-103z" horiz-adv-x="1164" />

<glyph glyph-name="cane_upright" unicode="&#xe806;" d="M220-145c-3 3-5 26-5 78 0 87-2 82 47 82 48 0 46 5 46-82 0-52-2-75-5-78-6-7-77-7-83 0z m0 180c-3 4-5 27-5 79 0 87-2 82 47 82 48 0 46 5 46-82 0-52-2-75-5-79-3-3-18-4-41-4-24 0-39 1-42 4z m4 182c-4 4-5 28-4 80l1 74h43 42l1-74c1-52 0-76-3-80-7-8-74-8-80 0z m-5 212c1 39-2 54-24 104-16 37-42 75-71 104-26 26-46 40-81 54-21 8-21 9-11 11 18 5 48-1 70-12 44-23 80-60 112-117 22-39 20-36 23-34 2 3-8 58-15 75-29 81-69 135-115 159l-17 8 21-2c24-3 52-16 71-33 18-15 49-61 62-92 6-14 11-26 12-26 1-1 4 8 7 20 22 75 74 148 124 171 11 6 28 10 42 11l23 2-24-13c-35-17-79-66-103-112-18-36-41-106-37-112 1-2 6 4 11 15 38 75 116 136 178 139 14 1 29 0 33-2 6-3 4-5-10-8-47-12-103-52-140-100-20-27-45-67-43-69 1-1 8 3 16 9 25 19 54 29 84 28 37 0 49-5 23-8-45-6-101-48-122-92-9-18-11-26-10-50 0-15 0-36 0-46l0-19-45 0-46 0z" horiz-adv-x="535" />

<glyph glyph-name="jumpleft" unicode="&#xe807;" d="M935-48c-174 157-422 389-422 394 0 12 462 432 484 441 70 26 129-110 85-195-8-14-67-75-130-133-64-59-116-109-116-112 0-3 53-55 118-115 65-61 123-121 130-135 19-36 15-113-7-149-20-32-33-39-69-39-18 0-38 12-73 43z m-500 30c-270 251-393 367-393 373 0 5 183 179 406 384 74 69 94 74 132 37 29-30 45-85 38-135-5-37-12-46-131-161-69-67-126-124-126-127 0-2 49-49 108-104 58-54 115-110 125-124 55-75 17-208-59-208-25 0-40 10-100 65z" horiz-adv-x="1143" />

<glyph glyph-name="jumpright" unicode="&#xe808;" d="M97-83c-15 9-32 29-38 44-16 38-15 107 3 140 7 15 68 76 133 135l120 109-45 43c-25 23-83 77-128 119-67 63-83 82-91 113-23 88 31 184 95 168 21-6 484-424 487-440 2-11-441-418-475-436-25-14-31-14-61 5z m490 1c-44 18-71 102-53 166 9 33 28 54 130 150 66 61 120 116 120 121 0 6-52 58-116 117-147 136-168 181-123 268 23 46 55 66 85 55 27-11 481-429 478-441-3-12-462-436-472-436-4 0-13-2-19-4-6-2-20 0-30 4z" horiz-adv-x="1153" />

<glyph glyph-name="logo" unicode="&#xe809;" d="M583-102c-33 9-60 29-75 54-12 20-21 55-21 77 0 16-1 17-16 29-35 27-56 62-70 115-8 29-9 39-9 95 0 69 4 96 21 139 25 65 79 111 145 125 30 6 94 6 124 0 71-15 124-67 144-141 17-59 18-143 3-202-29-114-100-169-219-170-23 0-46 1-49 3-9 2-9-1-4-20 4-16 21-35 38-42 30-14 77-6 101 17l10 11 21-20c12-11 22-21 23-23 2-5-20-25-37-33-26-14-49-19-83-18-17 0-38 2-47 4z m70 182c51 12 91 53 105 109 14 53 14 137 0 184-16 55-51 92-97 103-25 5-68 5-90-1-46-12-81-49-99-103-18-57-14-163 8-215 7-17 13-22 13-12 0 10 20 43 33 56 50 51 162 50 213-1 12-12 14-15 10-18-2-2-12-12-23-22l-19-17-15 12c-20 15-47 23-70 21-42-5-66-31-69-76l-1-15 15-4c18-5 67-5 86-1z m-431-143c9 31 40 62 72 73 11 4 20 9 21 10 3 5-34 8-68 5-64-5-122-26-155-56-9-9-17-15-17-15-1 1 2 9 6 18 25 52 96 85 188 85 21 0 38 2 38 3 0 5-56 21-89 25-59 8-109 2-152-20l-22-11 4 9c11 20 38 38 74 49 30 9 104 8 140-2 46-13 44-14 26 14-27 41-44 87-45 121 0 17 8 44 15 53 5 7 5 6 3-5-6-38 19-107 58-160 14-18 61-66 65-66 5 0 3 5-6 18-18 27-38 78-44 113-9 49 1 97 23 117 8 7 8 7 5 0-1-4-4-17-6-30-11-69 29-172 89-235l22-22-15-13c-7-7-19-18-25-24l-12-11-16 5c-21 6-69 6-92 0-28-7-59-24-74-41-10-11-13-13-11-7z m538 45c-12 11-24 22-25 25-2 5 4 14 46 64 23 26 36 39 41 39 9 0 51-39 51-47 0-7-78-100-85-100-2 0-15 9-28 19z m102 135c-23 8-32 14-32 20 0 1 10 28 21 60 24 68 22 66 65 50 23-9 27-12 27-19 0-8-35-111-40-117-5-6-11-5-41 6z m56 148c-33 9-35 10-35 19 0 15 30 118 35 122 5 3 12 2 34-4 15-4 29-9 31-10 6-4 4-18-11-73-17-65-16-65-54-54z m42 148c-19 4-36 8-36 9-1 1 3 19 9 41 12 47 12 48 4 72-13 38-42 72-73 87-9 5-17 10-17 11 0 0 7 0 17-1 27-4 50-16 71-39 16-18 18-20 18-13 0 5-5 23-11 41-20 59-58 111-98 133-9 6-17 11-16 12 3 3 41-6 54-14 17-10 46-40 60-63 14-21 30-60 35-82 2-9 5-17 7-17 2 0 3 14 2 43-3 73-23 128-62 167-11 12-21 22-21 22 0 3 23-6 36-14 42-25 77-106 78-183l0-20 7 10c4 6 20 22 34 37 35 35 60 48 94 51 14 1 26 0 30-2 6-4 6-4-2-4-12-1-42-14-61-26-21-15-52-47-68-70-18-26-38-67-36-71 1-2 11 7 23 19 48 52 99 79 147 78 19 0 45-7 45-12 0 0-6-1-13-1-61 1-145-55-192-129-10-14-15-28-20-48-3-16-7-29-8-31-1-1-18 2-37 7z" horiz-adv-x="1280" />

<glyph glyph-name="mapview" unicode="&#xe80a;" d="M254 16c-122 92-229 174-238 184-31 33-19 61 41 93l44 22-24 17c-32 23-53 48-53 65 0 18 20 43 46 56l21 11-31 22c-17 12-33 27-36 33-10 19-7 44 7 57 22 20 637 270 658 267 12-2 100-61 256-172 251-179 253-181 241-217-4-10-16-21-40-32l-34-18 19-15c51-39 62-60 46-90-3-7-27-22-52-33l-45-21 18-12c32-23 62-56 62-68 0-19-12-41-26-48-43-22-635-267-646-267-8 0-99 64-234 166z m512 54c210 88 248 105 239 105-5 1-366-121-428-145-86-32-91-31-173 25-221 151-256 174-256 170 0-3 79-64 175-136l175-132 22 9c12 5 122 52 246 104z m5 153c235 101 273 118 262 118-4 0-114-37-246-83-132-46-249-85-261-87-12-1-27 0-34 4-9 5-205 140-305 209-9 7-16 10-15 6 4-11 339-267 350-267 6-1 117 45 249 100z m-80 117c318 129 344 140 343 144-3 7-352 254-359 254-13 0-504-203-502-208 2-5 349-253 355-254 3 0 76 29 163 64z" horiz-adv-x="1195" />

<glyph glyph-name="step_left" unicode="&#xe80b;" d="M735-7c-245 125-658 339-671 347-4 2 22 19 58 37 36 18 148 75 249 127 101 52 262 134 358 184l174 89 52-4c28-2 62-11 76-19 57-33 77-105 44-158-17-27-63-54-343-196-80-41-104-56-96-63 5-6 96-54 202-108 216-111 217-111 238-143 52-79-22-178-133-178-39 0-61 10-208 85z" horiz-adv-x="1167" />

<glyph glyph-name="step_right" unicode="&#xe80c;" d="M125-66c-63 33-83 105-45 161 16 25 48 44 165 104 257 130 280 143 279 151-1 5-90 54-198 109-247 128-232 119-251 150-49 81 24 178 135 177 43 0 66-9 357-158 319-163 537-274 540-277 1-1-74-41-168-89-94-48-227-116-296-152-368-189-376-193-434-192-36 0-64 5-84 16z" horiz-adv-x="1168" />

<glyph glyph-name="temp" unicode="&#xe80d;" d="M456-102c-43 4-84 23-116 51-75 66-91 176-37 260 8 13 24 31 34 40l9 8-1 223c-1 160 0 227 1 236 10 93 108 145 191 103 28-15 48-37 60-66 11-25 10-4 11-262l0-230 13-11c36-34 58-76 64-125 3-20 3-30 0-49-8-69-50-127-113-158-34-17-78-24-116-20z m50 25c80 12 142 73 154 151 11 65-19 134-75 172l-9 6 0 14c0 12 0 14 2 14 2-1 2 22 1 215 0 182-1 218-2 227-11 54-65 91-119 80-38-8-68-36-79-74-1-4-2-15-2-24l-1-17h32 33v-12c0-7 1-13 1-13 1 0 4 1 8 3 13 5 35 5 49 1 19-6 37-21 46-38 10-20 9-3 10-209l1-183 12-8c15-10 33-28 42-42 42-61 35-141-18-194-30-31-70-47-114-47-44 0-83 16-114 47-52 52-60 133-18 194 9 14 27 31 41 40l10 7v57 57h-11-11v-50-49l-9-7c-5-4-14-12-21-19-52-53-64-131-32-198 35-71 114-112 193-101z m-41 65c4 2 9 5 11 7l3 3-6 0c-23 1-50 12-71 31-16 15-29 37-33 54-1 4-2 8-2 8-1 0-3-3-5-7-17-33 17-85 63-98 5-2 12-2 20-2 11 0 14 1 20 4z m-68 453v58h-10-11v-58-58h11 10z m1 128c1 38 1 43 9 59 3 4 8 12 12 16l7 7h-25-25v-58-58h11 10z" horiz-adv-x="954" />

<glyph glyph-name="temp_low" unicode="&#xe80e;" d="M446-101c-18 3-28 5-44 11-71 27-120 89-131 164-7 49 6 101 36 143 4 6 14 18 22 26l14 14 1 233 0 232 3 13c13 48 48 82 95 95 11 3 16 3 33 3 17 0 22 0 32-3 53-14 91-57 98-110 1-6 2-88 2-234l1-225 5-4c10-9 29-29 36-40 14-19 26-44 32-67 24-93-21-188-109-232-37-18-83-26-126-19z m57 24c41 6 74 22 103 49 30 28 48 63 54 104 10 64-19 131-73 169l-10 6 0 234 0 235-3 9c-11 36-37 61-72 71-14 4-38 4-52 0-35-10-61-37-71-71-2-6-3-15-4-26l-1-16h34 33v-18-18h-33-33v-59-59h33 33v-17-18h-33-33v-58-57h27 28l7 3c12 7 23 10 38 10 35 0 63-20 74-54l4-10 0-48 1-48 7-5c18-10 37-28 50-48 17-25 25-52 25-84 0-43-17-81-47-110-31-29-68-44-111-44-45 0-83 16-114 47-33 32-48 74-45 121 2 24 11 50 25 71 9 13 29 34 42 43l10 6 0 49c1 41 1 51 3 56 1 4 2 7 2 8 0 0-6 1-13 1h-13l0-50 0-49-8-6c-51-37-79-101-71-162 5-42 24-79 54-107 30-29 65-45 110-51 10-1 30 0 43 1z m-48 68c3 4 5 7 5 7-1 1-4 2-8 3-32 8-63 33-77 62-2 5-5 13-7 19-2 9-2 10-4 6-10-14-9-33 0-53 16-30 49-52 78-51 7 1 8 1 13 7z" horiz-adv-x="952" />

<glyph glyph-name="wind_calm" unicode="&#xe80f;" d="M114 350v69h386 386v-69-69h-386-386z" horiz-adv-x="995" />

<glyph glyph-name="wind_s" unicode="&#xe811;" d="M445 209c0 159-2 289-5 289-4 0-57-51-120-113l-113-113-47 47-46 47 199 199 199 199 199-199 199-199-47-47-46-47-114 113c-62 62-116 113-119 113-3 0-6-130-6-289v-289h-66-67z" horiz-adv-x="1000" />

<glyph glyph-name="rain" unicode="&#xe812;" d="M578-132c-70 35-111 116-98 196 7 46 26 80 74 131 49 52 80 96 109 156 11 24 23 44 25 44 3 0 11-15 17-34 26-74 53-121 103-183 42-53 46-62 46-136 0-62 0-62-13-87-18-36-52-70-86-87l-28-14h-60-60z m159 14c69 32 107 95 104 171-2 44-13 68-50 114-48 59-64 87-101 175l-4 10-8-16c-30-61-62-105-113-160-45-46-64-82-68-125-3-43 10-90 35-120 8-10 8-10 0 8-18 37-14 88 11 128 20 32 25 30 27-9 3-51 25-89 66-109 23-12 58-17 79-11 46 13 24-27-27-50-12-6-33-11-47-13-38-3-14-9 32-7 32 1 42 3 64 14z m-56 23l16 7-27 6c-35 6-65 22-85 45-15 18-32 54-32 71-1 20-13-19-13-42 0-39 21-73 56-90 20-9 61-8 85 3z m-136-1c0 1-3 4-7 7-7 6-7 5-2-1 5-7 9-9 9-6z m254 7c4 4 6 8 5 8-1 0-5-4-9-8-4-5-7-8-6-8 2 0 6 3 10 8z m-193 46c0 1-4 5-9 9l-10 8 8-9c7-9 11-11 11-8z m-462 25c-54 13-103 52-126 98-11 23-12 28-13 83l-2 58 15 30c11 22 26 41 57 74 49 52 79 96 108 156 12 24 23 44 26 44 4 0 10-12 15-28 22-69 54-126 103-187 46-57 58-90 54-152-2-32-4-40-19-70-27-55-76-94-133-106-33-7-57-7-85 0z m86 20c86 23 146 111 132 195-6 34-21 64-54 106-17 20-35 44-41 54-16 25-46 86-52 106-3 9-6 17-8 17-1 0-5-5-8-12-8-20-47-84-63-105-9-10-32-36-52-57-39-41-56-70-64-108-12-60 13-128 62-165l18-14-18 19c-41 43-44 106-9 162 19 29 23 26 26-14 2-41 14-67 41-91 27-24 52-31 94-28 32 3 34 3 34-5 0-10-22-30-50-44-16-8-27-11-49-11-16 0-34 1-41 3-7 2-11 2-9 0 12-12 77-17 111-8z m-21 33l17 8-13 1c-22 3-55 14-71 23-30 20-60 67-61 97 0 8-1 8-6-3-3-7-6-24-6-39 0-41 19-73 55-90 20-9 62-8 85 3z m110 6c4 5 7 8 5 8-1 0-5-3-9-8-4-4-6-8-5-8 1 0 5 4 9 8z m-181 42c0 1-5 6-11 11l-11 10 10-11c9-11 12-13 12-10z m277 224c-100 29-159 131-132 232 9 37 25 61 69 108 54 57 101 128 124 189 2 6 7 10 11 10 6 0 10-7 17-29 21-65 54-126 101-182 32-39 48-71 54-109 14-89-39-180-126-213-30-11-87-14-118-6z m55 5c-1 1-4 1-7 0-4-1-3-2 2-2 4 0 7 1 5 2z m67 24c93 45 131 151 86 240-5 9-21 31-37 50-15 19-36 48-45 63-18 29-47 91-51 110-3 10-5 8-25-31-29-53-55-89-102-138-25-27-41-47-50-67-14-27-14-30-14-73 0-40 1-47 11-67 5-12 13-26 16-30 6-8 6-6 1 14-8 29-7 43 2 72 8 26 30 62 38 62 4 0 6-9 6-31 0-42 11-68 40-94 30-28 58-35 106-28 19 3 22 2 25-4 1-5-3-12-16-23-23-20-48-32-79-36-20-2-17-3 19-2 38 1 45 2 69 13z m-54 19l19 9-24 2c-60 7-106 47-121 104l-5 20-5-16c-4-10-5-26-4-41 5-72 73-110 140-78z m-151 89c-1 4-2 3-2-2-1-4 0-7 2-5 1 1 1 4 0 7z m-45 51c-1 4-1 1-1-7 0-8 0-11 1-7 1 4 1 10 0 14z m87 158c5 5 9 10 8 10-2 0-7-5-12-10-5-6-9-10-8-10 2 0 7 4 12 10z" horiz-adv-x="858" />

<glyph glyph-name="bom-station-icon" unicode="&#xe813;" d="M94-125c-79 48-81 62-81 478 0 531-33 497 481 497 391 0 408-3 455-81 24-38 25-66 25-419 0-535 34-500-483-500-331 0-359 2-397 25z m189 129c30 16 34 87 6 98-17 6-17 9 0 26 51 51 4 94-104 94h-82v-116-115h77c43 0 89 6 103 13z m-103 58c0 12 12 19 32 19 20 0 32-7 32-19 0-12-12-20-32-20-20 0-32 8-32 20z m0 89c0 11 11 20 25 20 14 0 26-9 26-20 0-10-12-19-26-19-14 0-25 9-25 19z m363-133c48 37 48 126 1 174-29 29-41 32-92 26-41-4-67-16-83-35-25-31-30-103-9-142 28-53 129-66 183-23z m-122 56c-29 63 31 126 76 81 9-8 16-30 16-49 0-65-66-88-92-32z m260-3l1 80 20-80c17-68 25-80 49-80 24 0 31 12 48 74l19 74 1-74c1-70 3-74 34-74 31 0 32 1 32 115v116h-50c-49 0-51-2-59-48-14-84-28-89-45-18-15 63-17 66-59 66h-44v-116c0-106 2-115 26-115 23 0 26 9 27 80z m-160 274c5 11-1 29-13 41-19 19-22 19-42-1-18-17-19-24-5-41 21-25 51-25 60 1z m-34 133c18 0 51-11 74-25 50-31 67-33 67-8 0 27-59 70-109 79-77 14-172-33-155-78 6-16 13-16 49 7 23 14 57 25 74 25z m205 70c0 28-72 82-132 98-93 25-219-8-257-68-24-38 3-41 72-6 37 19 88 34 112 34 48 0 145-38 160-62 12-21 45-18 45 4z m97 47c5 7-20 42-56 76-100 96-216 123-347 81-70-23-168-97-168-127 0-30 33-21 87 24 123 103 294 93 403-23 44-46 66-55 81-31z" horiz-adv-x="974" />

<glyph glyph-name="cane_large_right" unicode="&#xe814;" d="M31-127c-15 13-27 26-27 30 0 9 90 114 99 114 10 0 60-45 60-53 0-10-90-114-98-114-4 0-19 10-34 23z m117 151c-15 5-30 13-32 16-3 4 2 23 18 68 27 75 27 75 38 75 13 0 64-20 68-27 3-5 0-19-14-61-26-73-29-80-40-81-6 0-22 4-38 10z m63 169c-17 4-32 11-35 14-3 5 0 22 13 72 9 36 18 67 20 70 6 7 20 6 52-4 26-7 29-9 30-18 2-13-32-136-38-140-6-4-7-4-42 6z m47 168l-39 10 2 13c3 17 4 21 14 57 7 27 7 30 1 49-14 49-48 91-88 111-19 9-20 10-10 10 33 1 69-17 95-46 15-17 21-21 21-16-1 15-26 81-42 110-20 35-63 80-86 91-18 8-15 13 6 10 43-6 91-49 122-109 12-22 30-74 30-85 0-4 2-8 4-8 3 0 4 12 3 34-1 91-28 166-73 211l-25 24 15-4c44-13 79-53 100-117 12-36 14-46 17-90 2-31 3-35 7-29 39 56 96 98 139 103 12 1 27 1 35-1l15-3-21-5c-59-16-126-79-165-158-15-30-15-42-2-24 24 29 72 68 106 86 42 21 99 26 122 10 9-6 8-6-10-6-51 0-117-35-171-90-38-38-54-66-66-109-5-21-11-38-13-38-2-1-21 3-43 9z" horiz-adv-x="591" />

<glyph glyph-name="logo_large" unicode="&#xe815;" d="M1154 148l1 253 36 2 35 1v-24-24l18 18c27 25 43 31 76 31 45 0 79-19 100-58 17-29 18-35 20-105 2-87-5-128-28-160-39-54-126-61-172-15l-14 14v-93-93h-37-37z m185-32c23 16 30 43 27 117-2 73-10 89-49 103-20 7-26 7-47 0-36-13-44-33-44-112 0-69 7-95 29-110 19-14 64-13 84 2z m-1051-139c0 19 51 73 85 91 26 13 68 25 90 25 56 0-47 31-137 41-93 10-183-6-239-44-11-8-22-13-23-12-5 5 15 36 37 56 77 70 205 82 374 35 12-4 12-3-4 10-31 23-121 65-174 81-69 21-171 23-216 4-17-6-30-10-30-7 0 13 31 39 63 54 78 35 203 21 313-33 18-9 41-22 49-28 9-6 17-10 18-9 2 1-3 21-11 45-30 94-30 184 0 244 13 28 45 65 51 60 1-2-3-19-9-39-29-93-2-233 68-352 24-41 38-51 23-17-11 27-23 110-23 160 0 57 16 124 37 161 16 27 62 70 74 70 11 0 10-2-6-27-27-40-38-83-41-158-5-111 17-209 68-303l24-46-53-29-54-29-38 20c-56 28-113 39-171 32-48-6-108-29-126-48-9-10-19-14-19-8z m518 69c-40 12-88 61-102 103-13 41-18 167-10 233 10 79 41 125 102 154 37 17 112 17 148 0 36-17 65-44 83-78 15-28 15-31 17-152 2-153-2-171-50-220-24-24-39-34-62-41-37-11-90-10-126 1z m116 76c42 24 47 39 49 157 2 114-1 136-26 165-38 45-112 45-150 0-24-29-28-51-26-165 2-92 4-106 14-123 26-44 92-60 139-34z m1117-80c-31 9-63 31-78 55-44 67-35 220 15 269 54 52 167 52 225 1 12-10 21-20 19-21-1-1-13-12-26-24l-24-22-13 12c-39 37-112 31-137-11-10-16-11-29-11-81 0-69 7-89 36-106 30-18 85-11 111 14l13 12 26-22c14-11 25-23 25-25 0-10-35-34-65-45-32-12-87-15-116-6z m314 0c-55 13-79 45-79 105 0 49 13 73 48 93 23 12 34 14 98 16 71 2 72 2 72 16 0 24-16 51-35 61-22 12-66 9-97-5l-21-10-21 15c-12 9-22 17-24 18-4 4 20 26 40 36 44 23 122 24 161 4 23-12 45-37 56-62 7-17 8-46 8-154v-133h-34c-29 0-33 2-33 11 0 10-2 9-27-3-27-14-74-17-112-8z m118 63c18 10 20 16 20 54l1 36h-60c-33 0-65-3-70-6-15-8-25-40-18-58 9-24 27-32 73-32 23 0 47 3 54 6z m682-59c-36 12-58 31-77 65-14 27-16 37-18 93-5 121 34 186 119 199 104 16 173-54 173-175v-33l-111-2-112-1 2-17c7-64 86-91 146-50l21 14 23-23 23-24-18-16c-40-35-117-49-171-30z m126 224c-10 48-40 74-80 69-13-2-30-7-37-12-17-10-32-40-32-61v-15h77 76z m-1695-217c-31 19-36 43-36 170v113h-20-20l2 32c1 33 2 33 20 35l18 1v51 50h37 37v-50-51h25 25v-34-34h-25-25v-106c0-75 2-108 6-113 4-4 15-7 26-7h18v-34-34l-35 0c-25 0-41 3-53 11z m186 169l1 179 36 2 35 1v-181-181h-37-37z m898 0l2 179 35 2 35 1v-24-24l19 19c26 25 64 36 101 29 39-8 65-29 83-67 14-32 14-34 15-162l0-130-36-2-35-1 0 109c0 60-3 119-5 131-8 32-28 49-61 52-35 4-55-5-70-28-10-17-11-28-11-141l0-123h-37-36z m672-103c-13 11-24 22-24 25 0 9 76 93 86 95 5 1 20-8 33-19 17-16 21-23 17-30-10-19-75-91-81-91-4 0-18 9-31 20z m87 123c-16 4-23 10-25 18-1 13 25 109 32 117 7 7 64-7 67-17 3-8-13-80-24-107-8-21-15-22-50-11z m40 142c-15 4-28 8-29 9-1 1 2 16 7 33 5 17 9 40 9 51 0 38-33 85-75 108l-20 10 18 1c25 0 43-8 69-31l22-21-6 22c-11 40-45 97-74 123-15 14-31 25-35 25-5 0-8 3-8 6 0 9 23 7 48-5 37-17 74-64 96-125l7-20 1 29c1 57-24 122-59 158-16 15-18 20-10 20 15 0 44-20 60-42 21-26 38-78 42-121l3-36 22 26c32 37 73 59 110 60 17 0 30-3 30-6 0-3-6-6-13-6-20 0-68-31-94-60-20-23-57-80-57-88 0-2 13 9 28 24 50 48 119 74 163 60 20-7 14-13-15-16-39-4-76-24-119-65-40-36-58-66-68-108-7-26-9-27-53-15z m-1699 124v37h37 37v-37-36h-37-37z" horiz-adv-x="3819" />
</font>
</defs>
</svg>
