<svg height="171pt" preserveAspectRatio="xMidYMid meet" viewBox="0 0 171 171" width="171pt" xmlns="http://www.w3.org/2000/svg"><g transform="matrix(.1 0 0 -.1 0 171)"><path d="m263 1695c-122-33-216-128-248-252-22-84-22-1092 0-1176 32-124 126-221 246-253 80-21 1109-20 1188 1 114 30 216 132 246 246 21 79 22 1108 1 1188-32 120-129 214-253 246-82 21-1101 21-1180 0zm1156-213c19-9 44-30 55-45 21-28 21-38 21-582s0-554-21-582c-47-64-34-63-619-63s-572-1-619 63c-21 28-21 38-21 582s0 554 21 582c47 64 34 63 619 63 485 0 533-2 564-18z"/><path d="m793 1410c-38-23-60-55-69-98-9-44 1-76 37-117 57-65 144-64 206 2 29 30 33 41 33 86 0 90-54 147-137 147-21 0-52-9-70-20zm105-82c15-15 15-61 0-76-24-24-88-1-88 32 0 42 60 72 88 44z"/><path d="m855 1109c-38-10-96-24-128-30-49-9-60-15-68-37-7-17-8-41-2-62 7-30 14-36 45-44 34-9 38-13 43-50 4-23 5-119 3-214-3-184-5-192-55-192-45 0-69-73-37-118 15-22 20-22 218-22 230 0 230 0 228 72-2 49-10 59-60 73l-37 11-3 303c-1 204-6 309-13 318-15 17-49 15-134-8zm74-662c12-16 8-17-52-17h-65l15 42c22 63 15 464-8 499l-17 24 52 15 51 16 5-282c4-218 8-285 19-297z"/></g></svg>