<svg height="189pt" preserveAspectRatio="xMidYMid meet" viewBox="0 0 268 189" width="268pt" xmlns="http://www.w3.org/2000/svg"><g transform="matrix(.1 0 0 -.1 0 189)"><path d="m760 1828c-112-48-151-71-189-109-86-86-132-236-96-313 29-60 98-84 164-56 39 16 59 48 71 113 14 70 48 103 119 117 32 6 254 10 550 10 474 0 497-1 528-20 65-39 63-24 63-612 0-406-3-539-13-558-7-13-28-35-46-47l-34-23h-534c-566 0-562 0-605 47-10 11-22 43-28 71-12 64-32 96-71 112-103 43-189-30-175-149 15-125 98-239 216-295l65-31h595 595l66 31c103 49 172 128 203 234 14 46 16 131 16 604 0 575-2 602-45 686-24 48-102 127-150 152-89 46-109 48-690 47-369 0-558-4-575-11z"/><path d="m929 1357c-23-15-38-37-47-65-13-38-12-46 7-84 16-34 37-53 93-88l73-45-485-5c-527-5-514-4-550-63-25-41-25-83 0-124 36-59 23-58 550-63l485-5-55-34c-76-47-108-79-121-118-13-41 1-90 36-123 29-27 101-38 136-20 57 30 680 423 676 427-3 2-159 100-348 218-375 235-382 238-450 192z"/></g></svg>